<svg width="48" height="48" viewBox="0 0 48 48" fill="none" xmlns="http://www.w3.org/2000/svg">
<g id="avialable-unfill 1">
<g id="Group">
<g id="Group_2">
<g id="Group_3">
<path id="Vector" d="M20.4023 30.6077L11.2911 21.6066C10.6972 21.0127 9.90753 20.6856 9.06772 20.6856C8.49078 20.6856 7.93756 20.8399 7.45522 21.1291V10.2933C7.45522 9.7402 7.31112 9.22027 7.0594 8.7683C7.22515 8.71195 7.4 8.68092 7.57925 8.68092C8.46837 8.68092 9.19165 9.4043 9.19165 10.2934V18.2576C9.19165 18.6806 9.53459 19.0235 9.95759 19.0235C10.3806 19.0235 10.7235 18.6806 10.7235 18.2576V10.2934C10.7235 8.55961 9.31306 7.14905 7.57925 7.14905C6.99547 7.14905 6.43306 7.30945 5.94462 7.60758C5.46819 7.31686 4.90887 7.14905 4.31112 7.14905C2.57731 7.14905 1.16675 8.55961 1.16675 10.2941L1.18006 25.3974C1.18072 26.0741 1.43122 27.0293 1.76281 27.6193C1.76815 27.6287 1.77359 27.638 1.7795 27.6472L11.2136 42.875C11.4125 43.2374 11.5919 43.9275 11.5919 44.3341V47.2206C11.5919 47.6436 11.9349 47.9865 12.3579 47.9865C12.7809 47.9865 13.1238 47.6436 13.1238 47.2206V44.3341C13.1238 43.6573 12.8736 42.7018 12.5419 42.1116C12.5366 42.1021 12.5311 42.0929 12.5253 42.0837L3.09097 26.8558C2.89203 26.4931 2.71231 25.8029 2.71184 25.396L2.69853 10.2933C2.69853 9.4042 3.42181 8.68083 4.31094 8.68083C5.20006 8.68083 5.92334 9.4042 5.92334 10.2933V23.8301C5.92334 23.8492 5.92484 23.8679 5.92625 23.8865C5.94022 24.6728 6.24575 25.4548 6.84434 26.0535L14.1624 33.3715C14.4615 33.6706 14.9465 33.6706 15.2456 33.3715C15.5447 33.0723 15.5447 32.5874 15.2456 32.2883L7.92762 24.9702C7.62312 24.6657 7.45531 24.2607 7.45531 23.8299C7.45531 23.3992 7.62312 22.9943 7.92762 22.6897C8.23212 22.3851 8.63712 22.2174 9.06781 22.2174C9.4985 22.2174 9.9034 22.3852 10.2112 22.693L19.3224 31.6941C20.3356 32.7074 21.1916 34.7739 21.1916 36.2069V47.234C21.1916 47.657 21.5345 48 21.9575 48C22.3805 48 22.7234 47.657 22.7234 47.234V36.2069C22.7234 34.3688 21.7053 31.9108 20.4023 30.6077Z" fill="white"/>
</g>
</g>
<g id="Group_4">
<g id="Group_5">
<path id="Vector_2" d="M43.6891 7.14893C43.0914 7.14893 42.5321 7.31674 42.0557 7.60746C41.5672 7.30933 41.0047 7.14893 40.4211 7.14893C38.6873 7.14893 37.2767 8.55949 37.2767 10.2933V18.2575C37.2767 18.6805 37.6197 19.0234 38.0427 19.0234C38.4657 19.0234 38.8086 18.6805 38.8086 18.2575V10.2933C38.8086 9.40418 39.532 8.6808 40.421 8.6808C40.6003 8.6808 40.7751 8.71183 40.9408 8.76818C40.689 9.22024 40.545 9.74008 40.545 10.2932V21.129C40.0626 20.8399 39.5094 20.6855 38.9325 20.6855C38.0925 20.6855 37.3029 21.0126 36.7124 21.6032L27.5946 30.6109C26.2949 31.9106 25.2767 34.3687 25.2767 36.2067V47.2341C25.2767 47.6571 25.6197 48 26.0427 48C26.4657 48 26.8086 47.6571 26.8086 47.2341V36.2069C26.8086 34.774 27.6645 32.7075 28.6745 31.6975L37.7923 22.6899C38.0968 22.3854 38.5018 22.2176 38.9325 22.2176C39.3631 22.2176 39.768 22.3854 40.0726 22.6899C40.3771 22.9944 40.545 23.3994 40.545 23.8301C40.545 24.2608 40.3771 24.6657 40.0726 24.9703L32.7546 32.2884C32.4555 32.5875 32.4555 33.0725 32.7546 33.3716C33.0538 33.6707 33.5387 33.6707 33.8378 33.3716L41.1558 26.0535C41.7545 25.4548 42.06 24.6729 42.0739 23.8866C42.0752 23.8679 42.0768 23.8491 42.0768 23.8301V10.2934C42.0768 9.40427 42.8002 8.68089 43.6892 8.68089C44.5784 8.68089 45.3017 9.40427 45.3017 10.2926L45.2884 25.3961C45.2881 25.803 45.1082 26.4933 44.9092 26.8559L35.4751 42.0836C35.4694 42.0928 35.4639 42.1022 35.4585 42.1116C35.1268 42.7016 34.8766 43.6571 34.8766 44.3341V47.2206C34.8766 47.6436 35.2196 47.9865 35.6426 47.9865C36.0656 47.9865 36.4085 47.6436 36.4085 47.2206V44.3341C36.4085 43.9273 36.588 43.2373 36.7868 42.875L46.2209 27.6472C46.2266 27.638 46.2321 27.6286 46.2375 27.6192C46.5692 27.0292 46.8197 26.074 46.8203 25.3974L46.8336 10.2933C46.8334 8.55958 45.423 7.14893 43.6891 7.14893Z" fill="white"/>
</g>
</g>
<g id="Group_6">
<g id="Group_7">
<path id="Vector_3" d="M34.9787 5.61703C35.4017 5.61703 35.7447 5.27409 35.7447 4.85109V0.765938C35.7447 0.342938 35.4017 0 34.9787 0H13.0214C12.5984 0 12.2554 0.342938 12.2554 0.765938V4.851C12.2554 5.274 12.5984 5.61694 13.0214 5.61694H13.2767V7.14881H13.0214C12.5984 7.14881 12.2554 7.49175 12.2554 7.91475V12C12.2554 12.423 12.5984 12.7659 13.0214 12.7659H13.2767V14.2978H13.0214C12.5984 14.2978 12.2554 14.6408 12.2554 15.0638V19.1488C12.2554 19.5718 12.5984 19.9148 13.0214 19.9148H34.9788C35.4018 19.9148 35.7448 19.5718 35.7448 19.1488V15.0638C35.7448 14.6408 35.4018 14.2978 34.9788 14.2978H34.7236V12.7659H34.9788C35.4018 12.7659 35.7448 12.423 35.7448 12V7.91494C35.7448 7.49194 35.4018 7.149 34.9788 7.149H34.7236V5.61713H34.9787V5.61703ZM34.2128 18.383H13.7873V15.8298H34.2128V18.383ZM34.2128 11.2341H30.8937C30.4707 11.2341 30.1277 11.577 30.1277 12C30.1277 12.423 30.4707 12.7659 30.8937 12.7659H33.1916V14.2978H14.8085V12.7659H27.8298C28.2528 12.7659 28.5958 12.423 28.5958 12C28.5958 11.577 28.2528 11.2341 27.8298 11.2341H13.7873V8.68088H34.2128V11.2341ZM14.8085 7.14891V5.61703H33.1915V7.14891H14.8085ZM34.2128 4.08506H13.7873V1.53188H34.2128V4.08506Z" fill="white"/>
</g>
</g>
</g>
</g>
</svg>
