<svg width="48" height="48" viewBox="0 0 48 48" fill="none" xmlns="http://www.w3.org/2000/svg">
<g id="talented-unfill 1" clip-path="url(#clip0_1_147)">
<g id="Group">
<path id="Vector" d="M28.7542 27.6937C30.5803 24.5243 31.1808 20.7954 30.4422 17.2129C29.7035 13.6305 27.677 10.4432 24.7463 8.2545C24.7353 6.97483 24.3896 5.72031 23.7434 4.61571C23.0972 3.51111 22.1731 2.59492 21.063 1.95825C19.6778 1.16702 18.1103 0.750578 16.515 0.75H14.985C13.3897 0.750578 11.8222 1.16702 10.437 1.95825C9.32635 2.59524 8.4019 3.51202 7.75569 4.61734C7.10948 5.72265 6.76404 6.97794 6.75375 8.25825C4.58754 9.88146 2.90133 12.061 1.87417 14.5654C0.847005 17.0699 0.517228 19.8057 0.919854 22.4825C1.32248 25.1593 2.44248 27.6771 4.16093 29.7686C5.87938 31.86 8.13213 33.4471 10.68 34.3612L9.315 36.75H3C2.40326 36.75 1.83097 36.9871 1.40901 37.409C0.987053 37.831 0.75 38.4033 0.75 39V45C0.75 45.5967 0.987053 46.169 1.40901 46.591C1.83097 47.0129 2.40326 47.25 3 47.25H22.5C23.0967 47.25 23.669 47.0129 24.091 46.591C24.5129 46.169 24.75 45.5967 24.75 45V39C24.75 38.4033 24.5129 37.831 24.091 37.409C23.669 36.9871 23.0967 36.75 22.5 36.75H16.185L15.3202 35.2365C15.4635 35.241 15.6067 35.25 15.75 35.25C18.3634 35.2499 20.9308 34.5616 23.1937 33.2542L36.0375 46.098C36.7768 46.8261 37.7739 47.2324 38.8116 47.2285C39.8492 47.2245 40.8432 46.8106 41.577 46.077C42.3107 45.3433 42.7248 44.3493 42.7288 43.3117C42.7329 42.2741 42.3267 41.2769 41.5988 40.5375L28.7542 27.6937ZM11.181 3.26025C12.3397 2.59885 13.6508 2.25067 14.985 2.25H16.515C17.8492 2.25067 19.1603 2.59885 20.319 3.26025C21.6527 4.01762 22.6315 5.27324 23.0404 6.75151C23.4493 8.22977 23.2549 9.80988 22.5 11.145V10.3628C22.5013 9.32601 22.1943 8.31229 21.618 7.4505L20.874 6.33375C20.8174 6.24891 20.7441 6.1765 20.6586 6.12095C20.573 6.0654 20.4771 6.02788 20.3766 6.01068C20.276 5.99349 20.1731 5.99697 20.0739 6.02092C19.9748 6.04488 19.8816 6.0888 19.8 6.15L18.8002 6.9C17.6305 7.77379 16.2103 8.24721 14.7502 8.25H12.75C11.8839 8.25159 11.045 8.55243 10.3753 9.1016C9.70556 9.65077 9.24621 10.4145 9.075 11.2635C8.67804 10.6023 8.41743 9.86831 8.30852 9.10482C8.19962 8.34132 8.24462 7.56375 8.44088 6.81792C8.63714 6.07209 8.98069 5.37308 9.45128 4.76208C9.92188 4.15108 10.51 3.64044 11.181 3.26025ZM12.75 19.5375V21.8625L11.5448 22.0635C10.0556 22.316 8.68774 23.0425 7.64475 24.135C6.86991 22.5355 6.58928 20.7414 6.83868 18.9817C7.08808 17.2219 7.85621 15.5765 9.045 14.2552C9.17296 15.3749 9.57899 16.4447 10.2261 17.3673C10.8732 18.2899 11.7409 19.0359 12.75 19.5375ZM14.25 20.076C15.2365 20.308 16.2635 20.308 17.25 20.076V22.0718C16.7856 22.3091 16.2715 22.4329 15.75 22.4329C15.2285 22.4329 14.7144 22.3091 14.25 22.0718V20.076ZM15.75 18.75C14.3581 18.7484 13.0237 18.1948 12.0394 17.2106C11.0552 16.2263 10.5016 14.8919 10.5 13.5V12C10.5 11.4033 10.7371 10.831 11.159 10.409C11.581 9.98705 12.1533 9.75 12.75 9.75H14.7502C16.5347 9.74603 18.2703 9.16747 19.7003 8.1L20.0648 7.82625L20.3693 8.28225C20.7812 8.89785 21.0007 9.62204 21 10.3628V13.5C20.9984 14.8919 20.4448 16.2263 19.4606 17.2106C18.4763 18.1948 17.1419 18.7484 15.75 18.75ZM11.7907 23.5455L13.3657 23.283C14.0883 23.7092 14.9119 23.934 15.7507 23.934C16.5896 23.934 17.4132 23.7092 18.1357 23.283L19.7108 23.5455C21.0239 23.7672 22.2125 24.4563 23.0573 25.4857C22.2275 26.6499 21.1316 27.5989 19.8608 28.2537C18.59 28.9085 17.1811 29.2502 15.7515 29.2502C14.3219 29.2502 12.913 28.9085 11.6422 28.2537C10.3714 27.5989 9.27549 26.6499 8.44575 25.4857C9.29015 24.4566 10.4782 23.7675 11.7907 23.5455ZM23.8545 24.1372C22.8115 23.0448 21.4437 22.3182 19.9545 22.0658L18.75 21.8647V19.5397C19.7591 19.0382 20.6268 18.2921 21.2739 17.3695C21.921 16.447 22.327 15.3771 22.455 14.2575C23.6441 15.579 24.4124 17.2249 24.6617 18.9851C24.911 20.7453 24.6299 22.5398 23.8545 24.1395V24.1372ZM22.5 38.25C22.6989 38.25 22.8897 38.329 23.0303 38.4697C23.171 38.6103 23.25 38.8011 23.25 39V45C23.25 45.1989 23.171 45.3897 23.0303 45.5303C22.8897 45.671 22.6989 45.75 22.5 45.75H3C2.80109 45.75 2.61032 45.671 2.46967 45.5303C2.32902 45.3897 2.25 45.1989 2.25 45V39C2.25 38.8011 2.32902 38.6103 2.46967 38.4697C2.61032 38.329 2.80109 38.25 3 38.25H9.75C9.8819 38.2503 10.0115 38.2157 10.1258 38.1499C10.2401 38.084 10.335 37.9892 10.401 37.875L12.75 33.762L15.099 37.872C15.1646 37.9868 15.2593 38.0822 15.3736 38.1486C15.488 38.215 15.6178 38.25 15.75 38.25H22.5ZM14.4307 33.6795L13.401 31.8795C13.3299 31.7718 13.2333 31.6834 13.1196 31.6223C13.006 31.5612 12.879 31.5292 12.75 31.5292C12.621 31.5292 12.494 31.5612 12.3804 31.6223C12.2667 31.6834 12.1701 31.7718 12.099 31.8795L11.4375 33.036C9.17854 32.2765 7.16119 30.932 5.59082 29.1393C4.02046 27.3466 2.95318 25.1698 2.49764 22.8306C2.0421 20.4913 2.21457 18.0731 2.9975 15.8221C3.78043 13.5712 5.14586 11.5679 6.95475 10.0162C7.18748 10.9875 7.61569 11.901 8.21325 12.7013L8.3235 12.8512C6.85516 14.3197 5.85523 16.1907 5.45018 18.2274C5.04512 20.2642 5.25312 22.3754 6.04787 24.2939C6.84262 26.2125 8.18843 27.8523 9.91512 29.006C11.6418 30.1597 13.6718 30.7755 15.7485 30.7755C17.8252 30.7755 19.8552 30.1597 21.5819 29.006C23.3086 27.8523 24.6544 26.2125 25.4491 24.2939C26.2439 22.3754 26.4519 20.2642 26.0468 18.2274C25.6418 16.1907 24.6418 14.3197 23.1735 12.8512L23.2838 12.7013C23.8813 11.901 24.3095 10.9875 24.5422 10.0162C26.6338 11.8119 28.1252 14.2049 28.816 16.8735C29.5068 19.5421 29.3638 22.3582 28.4062 24.9431C27.4486 27.528 25.7224 29.7576 23.4598 31.3321C21.1971 32.9066 18.5066 33.7504 15.75 33.75C15.3097 33.75 14.868 33.7222 14.4307 33.6795ZM38.8185 45.75C38.4989 45.751 38.1824 45.6886 37.8871 45.5663C37.5919 45.444 37.3239 45.2642 37.0988 45.0375L24.4823 32.4217C25.8072 31.4688 26.9688 30.3072 27.9217 28.9823L40.5375 41.598C40.8776 41.9381 41.1092 42.3714 41.203 42.8431C41.2969 43.3148 41.2488 43.8038 41.0648 44.2482C40.8808 44.6925 40.5692 45.0724 40.1694 45.3397C39.7696 45.607 39.2995 45.7498 38.8185 45.75Z" fill="white"/>
<path id="Vector_2" d="M33.6577 9.96824L32.2785 14.7937C32.2348 14.9477 32.2415 15.1116 32.2976 15.2615C32.3538 15.4114 32.4563 15.5393 32.5904 15.6267C32.7245 15.7141 32.883 15.7564 33.0428 15.7472C33.2026 15.7381 33.3552 15.6781 33.4785 15.576L37.5 12.225L41.5185 15.5745C41.6417 15.6765 41.7942 15.7364 41.9539 15.7455C42.1136 15.7546 42.2719 15.7125 42.406 15.6252C42.54 15.5379 42.6426 15.4101 42.6988 15.2604C42.755 15.1107 42.7619 14.9469 42.7185 14.793L41.34 9.96674L44.778 6.52874C44.8822 6.42391 44.9531 6.29062 44.9818 6.14562C45.0105 6.00062 44.9957 5.85037 44.9393 5.71374C44.8829 5.57712 44.7874 5.46021 44.6647 5.3777C44.5421 5.29519 44.3978 5.25076 44.25 5.24999H40.2142L38.175 1.16474C38.1057 1.04851 38.0074 0.952262 37.8897 0.885424C37.772 0.818586 37.639 0.783447 37.5037 0.783447C37.3684 0.783447 37.2354 0.818586 37.1177 0.885424C37.0001 0.952262 36.9018 1.04851 36.8325 1.16474L34.7872 5.24999H30.75C30.6016 5.25002 30.4567 5.29403 30.3334 5.37644C30.2101 5.45885 30.114 5.57597 30.0572 5.713C30.0005 5.85002 29.9856 6.0008 30.0145 6.14626C30.0435 6.29173 30.1149 6.42535 30.2197 6.53024L33.6577 9.96824ZM35.25 6.74999C35.39 6.75075 35.5274 6.71231 35.6467 6.63901C35.766 6.56571 35.8624 6.46049 35.925 6.33524L37.5 3.17699L39.0787 6.33524C39.141 6.45991 39.2368 6.56476 39.3554 6.63802C39.474 6.71128 39.6106 6.75005 39.75 6.74999H42.4395L39.9697 9.21974C39.8752 9.31421 39.8076 9.43223 39.774 9.56159C39.7403 9.69095 39.7419 9.82694 39.7785 9.95549L40.6095 12.8655L37.9845 10.674C37.8496 10.5615 37.6796 10.5 37.5041 10.5C37.3285 10.5 37.1585 10.5615 37.0237 10.674L34.3935 12.8655L35.2245 9.95624C35.2612 9.82758 35.2628 9.69144 35.2292 9.56194C35.1955 9.43243 35.1279 9.31428 35.0332 9.21974L32.5605 6.74999H35.25Z" fill="white"/>
<path id="Vector_3" d="M47.1937 20.7127C47.1369 20.5756 47.0406 20.4584 46.9171 20.3761C46.7936 20.2937 46.6484 20.2498 46.5 20.25H42.4642L40.425 16.1647C40.3557 16.0485 40.2574 15.9523 40.1397 15.8854C40.022 15.8186 39.889 15.7834 39.7537 15.7834C39.6184 15.7834 39.4854 15.8186 39.3677 15.8854C39.2501 15.9523 39.1518 16.0485 39.0825 16.1647L37.0372 20.25H33C32.8516 20.25 32.7067 20.294 32.5834 20.3764C32.4601 20.4589 32.364 20.576 32.3072 20.713C32.2505 20.85 32.2356 21.0008 32.2645 21.1463C32.2935 21.2917 32.3649 21.4254 32.4697 21.5302L35.9077 24.9682L34.5285 29.7937C34.4848 29.9477 34.4915 30.1116 34.5476 30.2615C34.6038 30.4114 34.7063 30.5393 34.8404 30.6267C34.9745 30.7141 35.133 30.7564 35.2928 30.7472C35.4526 30.7381 35.6052 30.6781 35.7285 30.576L39.75 27.225L43.7685 30.5745C43.8917 30.6765 44.0442 30.7364 44.2039 30.7455C44.3636 30.7546 44.5219 30.7125 44.656 30.6252C44.79 30.5379 44.8926 30.4101 44.9488 30.2604C45.005 30.1107 45.0119 29.9469 44.9685 29.793L43.59 24.9667L47.028 21.5287C47.1331 21.4243 47.205 21.2911 47.2345 21.1459C47.264 21.0006 47.2498 20.8499 47.1937 20.7127ZM42.2205 24.2197C42.1259 24.3142 42.0583 24.4322 42.0247 24.5616C41.9911 24.6909 41.9926 24.8269 42.0292 24.9555L42.8602 27.8655L40.2352 25.674C40.1004 25.5615 39.9304 25.5 39.7548 25.5C39.5793 25.5 39.4093 25.5615 39.2745 25.674L36.6442 27.8655L37.4752 24.9562C37.5119 24.8276 37.5136 24.6914 37.4799 24.5619C37.4463 24.4324 37.3786 24.3143 37.284 24.2197L34.8105 21.75H37.5C37.64 21.7508 37.7774 21.7123 37.8967 21.639C38.016 21.5657 38.1124 21.4605 38.175 21.3352L39.75 18.177L41.3287 21.3352C41.391 21.4599 41.4868 21.5648 41.6054 21.638C41.724 21.7113 41.8606 21.7501 42 21.75H44.6895L42.2205 24.2197Z" fill="white"/>
<path id="Vector_4" d="M21.75 42.75H3.75V44.25H21.75V42.75Z" fill="white"/>
<path id="Vector_5" d="M20.25 39.75H5.25V41.25H20.25V39.75Z" fill="white"/>
</g>
</g>
<defs>
<clipPath id="clip0_1_147">
<rect width="48" height="48" fill="white"/>
</clipPath>
</defs>
</svg>
