<svg width="24" height="24" viewBox="0 0 24 24" fill="none" xmlns="http://www.w3.org/2000/svg">
<g id="twitter-unfill-regular 1" clip-path="url(#clip0_1_345)">
<g id="Group">
<g id="Group_2">
<g id="Group_3">
<path id="Vector" d="M23.6608 5.26924C23.5216 5.04295 23.2671 4.91469 23.0021 4.93767L21.8289 5.03987L22.9503 2.77917C23.0839 2.50991 23.0311 2.18551 22.8192 1.97241C22.6071 1.75931 22.283 1.70499 22.0131 1.83716L19.045 3.29079C17.2112 2.32269 14.9202 2.61005 13.3437 4.04612C12.028 5.24465 11.3364 7.08781 11.4654 8.92586C8.02652 8.58119 5.11567 6.61285 3.39444 3.43243C3.28024 3.22145 3.06613 3.08344 2.82684 3.06648C2.58709 3.0498 2.35611 3.15605 2.21338 3.34893C1.14582 4.79112 1.07091 6.76851 1.90782 8.3953C1.67712 8.33703 1.43162 8.25817 1.15938 8.16722C0.926152 8.08923 0.669028 8.13919 0.48185 8.29874C0.294672 8.4583 0.20469 8.70421 0.244718 8.94691C0.575876 10.9546 1.74665 12.4976 3.5961 13.411C3.35529 13.4948 3.10956 13.5629 2.8597 13.615C2.61145 13.6668 2.41043 13.8484 2.33392 14.0902C2.2574 14.3319 2.31724 14.5961 2.49049 14.7813C3.82234 16.2049 5.74623 16.9056 7.11278 17.2417C5.55901 18.4585 3.88176 18.6621 1.44453 18.5784C1.16241 18.5699 0.902484 18.7288 0.783872 18.9845C0.665306 19.2403 0.711308 19.5423 0.900784 19.7511C1.91678 20.871 5.61834 22.1338 9.50952 22.2285C9.66342 22.2322 9.82041 22.2342 9.9807 22.2342C12.7128 22.2342 16.3236 21.6485 18.9154 19.0567C20.8771 17.0951 22.1041 14.8368 22.5623 12.3447C22.9323 10.332 22.6984 8.72025 22.5861 7.94562C22.5778 7.88868 22.569 7.82825 22.5618 7.7754L23.6593 6.00656C23.7993 5.78091 23.7999 5.49553 23.6608 5.26924ZM21.1972 8.14709C21.4055 9.58202 22.039 13.9486 17.9231 18.0644C15.5307 20.4568 12.0459 20.8864 9.54361 20.8256C7.40846 20.7737 5.49862 20.3653 4.11443 19.8996C4.67643 19.8307 5.17725 19.7243 5.65 19.5774C6.95327 19.1723 8.05428 18.4434 9.11485 17.2835C9.29164 17.0902 9.34596 16.8146 9.25584 16.5686C9.16572 16.3226 8.94605 16.1474 8.68622 16.1141C8.01714 16.0283 6.00676 15.6899 4.42367 14.5979C4.87987 14.4113 5.31986 14.1778 5.73998 13.8992C5.97045 13.7462 6.08966 13.4722 6.04426 13.1994C5.9989 12.9266 5.79757 12.7058 5.53001 12.6356C4.23429 12.2959 2.6705 11.5358 1.94941 9.839C2.40988 9.9197 2.91057 9.93923 3.44458 9.81952C3.6921 9.76409 3.89044 9.57935 3.96324 9.33634C4.03608 9.09332 3.97211 8.8299 3.79591 8.64746C2.89867 7.71814 2.56315 6.37889 2.85101 5.23289C3.79375 6.61069 4.9881 7.77025 6.35648 8.62756C8.10699 9.7243 10.1501 10.3304 12.265 10.3802C12.4802 10.3847 12.6867 10.2908 12.8237 10.1241C12.9607 9.95738 13.0133 9.73693 12.9665 9.52632C12.6026 7.89052 13.1216 6.14668 14.2887 5.08358C15.4992 3.98087 17.2882 3.81359 18.6392 4.67705C18.8455 4.8089 19.1057 4.82365 19.3256 4.71593L20.7751 4.00601L20.0165 5.53546C19.9037 5.76271 19.9224 6.03312 20.0654 6.24263C20.2083 6.45214 20.4529 6.56846 20.7059 6.54626L21.7281 6.45725L21.2572 7.21621C21.0992 7.47094 21.1319 7.69695 21.1972 8.14709Z" fill="#302D2D"/>
</g>
</g>
</g>
</g>
<defs>
<clipPath id="clip0_1_345">
<rect width="23.5294" height="23.5294" fill="white" transform="translate(0.235352 0.235352)"/>
</clipPath>
</defs>
</svg>
