<svg width="24" height="24" viewBox="0 0 24 24" fill="none" xmlns="http://www.w3.org/2000/svg">
<g id="vk-unfill 1" clip-path="url(#clip0_1_352)">
<g id="Group">
<path id="Vector" d="M12.1422 19.3529C15.5461 19.3529 14.3324 17.198 14.5952 16.5783C14.5912 16.1156 14.5873 15.6705 14.603 15.3999C14.8187 15.4607 15.3275 15.7185 16.3785 16.7401C18.001 18.3774 18.4157 19.3529 19.7265 19.3529H22.1393C22.904 19.3529 23.302 19.0362 23.501 18.7705C23.6932 18.5136 23.8814 18.0627 23.6755 17.3607C23.1373 15.6705 19.9981 12.7519 19.803 12.444C19.8324 12.3872 19.8795 12.3117 19.904 12.2725H19.902C20.5216 11.4538 22.8863 7.9107 23.2344 6.49305C23.2354 6.49109 23.2363 6.48815 23.2363 6.48521C23.4246 5.83815 23.252 5.41854 23.0736 5.18129C22.805 4.82638 22.3775 4.64697 21.8001 4.64697H19.3873C18.5795 4.64697 17.9667 5.05384 17.6569 5.79599C17.1383 7.11462 15.6814 9.82638 14.5893 10.7862C14.5559 9.42638 14.5785 8.38815 14.5961 7.61658C14.6314 6.11168 14.7452 4.64697 13.1834 4.64697H9.39123C8.4128 4.64697 7.47653 5.7156 8.49025 6.98423C9.37653 8.09599 8.80888 8.7156 9.00006 11.7999C8.25496 11.0009 6.92947 8.84305 5.99221 6.08521C5.72947 5.33913 5.33143 4.64795 4.21084 4.64795H1.7981C0.819665 4.64795 0.235352 5.18129 0.235352 6.07442C0.235352 8.08031 4.67555 19.3529 12.1422 19.3529ZM4.21084 6.11854C4.42359 6.11854 4.44516 6.11854 4.603 6.56658C5.5628 9.39305 7.71574 13.5754 9.28829 13.5754C10.4697 13.5754 10.4697 12.3646 10.4697 11.9087L10.4687 8.27933C10.404 7.07835 9.96673 6.48031 9.67947 6.11756L13.1187 6.12148C13.1206 6.13815 13.0991 10.1362 13.1285 11.1048C13.1285 12.4803 14.2206 13.2685 15.9255 11.5431C17.7246 9.51266 18.9687 6.47737 19.0187 6.35384C19.0922 6.17736 19.1559 6.11756 19.3873 6.11756H21.8001H21.8099C21.8089 6.1205 21.8089 6.12344 21.8079 6.12638C21.5873 7.1558 19.4099 10.4362 18.6814 11.4548C18.6697 11.4705 18.6589 11.4872 18.6481 11.5038C18.3275 12.0274 18.0667 12.6058 18.6922 13.4195H18.6932C18.7501 13.4881 18.8981 13.6489 19.1138 13.8725C19.7844 14.5646 22.0844 16.9313 22.2883 17.8725C22.153 17.894 22.0059 17.8783 19.7265 17.8832C19.2412 17.8832 18.8618 17.1578 17.4138 15.697C16.1118 14.4303 15.2667 13.9127 14.4971 13.9127C13.003 13.9127 13.1118 15.1254 13.1255 16.5921C13.1305 18.1823 13.1206 17.6793 13.1314 17.7793C13.0442 17.8136 12.7942 17.8823 12.1422 17.8823C5.92163 17.8823 1.87065 8.00874 1.71476 6.12148C1.76868 6.11658 2.51084 6.11952 4.21084 6.11854Z" fill="#302D2D"/>
</g>
</g>
<defs>
<clipPath id="clip0_1_352">
<rect width="23.5294" height="23.5294" fill="white" transform="translate(0.235352 0.235352)"/>
</clipPath>
</defs>
</svg>
